<svg width="40" height="46" viewBox="0 0 40 46" fill="none" xmlns="http://www.w3.org/2000/svg">
<g clip-path="url(#clip0_201_6859)">
<path d="M35.6627 2.85302H4.27974C1.9171 2.85302 0.000244141 4.76988 0.000244141 7.13252V38.5155C0.000244141 40.8782 1.9171 42.795 4.27974 42.795H35.6627C38.0254 42.795 39.9422 40.8782 39.9422 38.5155V7.13252C39.9422 4.76988 38.0254 2.85302 35.6627 2.85302ZM24.7233 37.0623C23.9744 37.196 23.698 36.7324 23.698 36.349C23.698 35.8676 23.7158 33.4069 23.7158 31.4187C23.7158 30.0278 23.2522 29.1452 22.7083 28.6816C26.0071 28.316 29.4842 27.8613 29.4842 22.1643C29.4842 20.5416 28.9047 19.7303 27.9596 18.6872C28.1112 18.3038 28.6194 16.7257 27.8081 14.6751C26.5688 14.2918 23.7336 16.271 23.7336 16.271C22.5568 15.9412 21.2818 15.7718 20.0247 15.7718C18.7676 15.7718 17.4927 15.9412 16.3158 16.271C16.3158 16.271 13.4807 14.2918 12.2414 14.6751C11.4301 16.7168 11.9293 18.2949 12.0898 18.6872C11.1448 19.7303 10.699 20.5416 10.699 22.1643C10.699 27.8346 14.0245 28.316 17.3233 28.6816C16.8954 29.065 16.512 29.7247 16.3782 30.6698C15.5313 31.0531 13.3648 31.7129 12.072 29.4305C11.2607 28.0218 9.79851 27.9059 9.79851 27.9059C8.35418 27.8881 9.70044 28.8153 9.70044 28.8153C10.6633 29.2611 11.3409 30.9729 11.3409 30.9729C12.2057 33.6208 16.3426 32.7293 16.3426 32.7293C16.3426 33.9685 16.3604 35.9835 16.3604 36.349C16.3604 36.7324 16.0929 37.196 15.3351 37.0623C9.4508 35.0919 5.33179 29.4929 5.33179 22.9488C5.33179 14.7643 11.5906 8.5501 19.7751 8.5501C27.9596 8.5501 34.5929 14.7643 34.5929 22.9488C34.6018 29.4929 30.6076 35.1008 24.7233 37.0623ZM15.977 31.6148C15.8076 31.6505 15.6472 31.5792 15.6293 31.4633C15.6115 31.3295 15.7274 31.2136 15.8968 31.178C16.0662 31.1601 16.2267 31.2314 16.2445 31.3474C16.2713 31.4633 16.1554 31.5792 15.977 31.6148ZM15.1301 31.5346C15.1301 31.6505 14.9963 31.7486 14.818 31.7486C14.6219 31.7664 14.4881 31.6683 14.4881 31.5346C14.4881 31.4187 14.6219 31.3206 14.8002 31.3206C14.9696 31.3028 15.1301 31.4008 15.1301 31.5346ZM13.9086 31.4365C13.873 31.5524 13.6946 31.6059 13.5431 31.5524C13.3737 31.5167 13.2578 31.383 13.2934 31.2671C13.3291 31.1512 13.5074 31.0977 13.659 31.1334C13.8373 31.1869 13.9532 31.3206 13.9086 31.4365ZM12.812 30.9551C12.7318 31.0531 12.5624 31.0353 12.4286 30.9016C12.2949 30.7857 12.2592 30.6163 12.3484 30.536C12.4286 30.438 12.598 30.4558 12.7318 30.5895C12.8477 30.7054 12.8922 30.8837 12.812 30.9551ZM12.0007 30.1437C11.9204 30.1972 11.7689 30.1437 11.6708 30.01C11.5727 29.8763 11.5727 29.7247 11.6708 29.6623C11.7689 29.5821 11.9204 29.6445 12.0007 29.7782C12.0987 29.9119 12.0987 30.0724 12.0007 30.1437ZM11.4212 29.2789C11.3409 29.3592 11.2072 29.3146 11.1091 29.2254C11.011 29.1095 10.9932 28.9758 11.0734 28.9134C11.1537 28.8331 11.2874 28.8777 11.3855 28.9669C11.4836 29.0828 11.5014 29.2165 11.4212 29.2789ZM10.8238 28.6192C10.7881 28.6994 10.6722 28.7172 10.5742 28.6548C10.4583 28.6013 10.4048 28.5033 10.4404 28.423C10.4761 28.3695 10.5742 28.3428 10.6901 28.3874C10.806 28.4498 10.8595 28.5478 10.8238 28.6192Z" fill="black"/>
</g>
<defs>
<clipPath id="clip0_201_6859">
<rect width="39.942" height="45.648" fill="white"/>
</clipPath>
</defs>
</svg>
